<svg xmlns="http://www.w3.org/2000/svg" viewBox="0 0 240 85"><path d="M160.2.4h80V47l-.4 4.3a40.5 40.5 0 0 1-35.4 33.4c-2.3.4-4.3.2-6.3.2a39.9 39.9 0 0 1-37.5-34.4l-.4-3.7V.4z" fill="#211c1e"/><path d="M161.7 1.9h77v44.5a38.9 38.9 0 0 1-47.1 36 38.9 38.9 0 0 1-30-38.4V1.9z" fill="#fff"/><path fill="#00a34c" d="M163.7 3.9H194c-1.8 2-3.9 4-4.9 6.5-1.8 3.7-2.2 7.7-3.8 11.4a14.8 14.8 0 0 1-4.1 5.3c-2.7 2.2-6 3.4-8.6 5.7a14.2 14.2 0 0 0-3.4 5c-1.9 4-2.7 8.4-5.1 12-.4-2-.4-3.8-.4-5.8V3.9zm28.9 27.7c3.2-4 4-9.2 6.7-13.5v26.3a36.4 36.4 0 0 1-18 32 36.5 36.5 0 0 1-13-13.7 27.5 27.5 0 0 0 5.8-7.1c2-3.5 2.8-7.4 4.2-11a13.4 13.4 0 0 1 3.5-4.9c3.3-3.3 8-4.5 10.8-8.1zm1.8 35.8l.2-2.3 2.3.4-.9 1.5-1.6.4zm9.2-1.9l2.2-.4.2 2.3-1.6-.4-.8-1.5zm-4.3 5c1.6-.7 3.4.5 3.4 2.2a2.7 2.7 0 0 1-2.6 2.6c-1.2 0-2.2-1-2.4-2.2 0-1.3.6-2.3 1.6-2.7zm-8 5.2l.9-2c.4.6.8 1 1.4 1.2-.4.6-.4 1.2-.4 1.8l-1.8-1zM207 75l1.2-1.2.9 2-1.9 1-.2-1.8zm-6.9 4.9l1.6.8-1.4 1.6-1.6-1.6c.6-.2 1.2-.4 1.4-.8z"/><path d="M201.1 45V3.9h35.6V46A36.8 36.8 0 0 1 219 76.3 36.6 36.6 0 0 1 201.1 45zM200 65.3a4 4 0 0 0-2.4.9c-.4.6-.4 1.4-.2 2l-.4.4c-.7-.4-1.3-.8-2-.4-1.7.8-2.3 3-2 4.9.5.8 1.3 1.2 2.1 1l.2.6c-.6.4-1.2 1-1 1.8a4.2 4.2 0 0 0 4.3 3c.8 0 1.2-.5 1.4-1.3h.6c.2.6.6 1.2 1.2 1.4 2 .4 4.1-1.2 4.5-3 .2-.9-.4-1.5-1-1.9l.2-.6c.6 0 1.2 0 1.6-.6.8-1 .6-2.7 0-3.7-.4-1-1.2-1.8-2.2-1.8l-1.2.6-.4-.4c.4-.8.2-1.8-.7-2.3s-1.6-.8-2.6-.6zm.2 3.7c1.8 0 3.7 1.2 3.9 3 .6 2.5-1.7 5-4.1 4.5a3.5 3.5 0 0 1-3.5-3.8 3.9 3.9 0 0 1 3.7-3.7z" fill="#ee1921"/><path fill="#fff" d="M217.6 6.5l-.2 3c-2 .9-3.7 2.5-5.5 3.8-.6.5-1.4 1-1.6 1.8.6.2.4 1.2-.2 1.4.2.2.4.6.8.6.6 0 .6-1 1.4-1 .4 0 1 .2.8.8l-1 .4-.4.4c.8.2 1.6.4 2.2 0 .6-.2.6-1.2 1.5-1.4h4.6a3.2 3.2 0 0 0 1.3-1.6c.4 0 1 .4.8.8a3.1 3.1 0 0 1-3 2c-1 3-4.3 4.5-6.2 7.1-1 1-1.4 2.5-1.6 4l-4 1.3c-1 .2-1.5 1.3-1.9 1.9l1 2.4c.6 1 .6 2.2 1 3.5.6 0 1 0 1.3.4.4.2.4.8.4 1.2.6.6 1.4 1.2 2.4 1.2a7 7 0 0 0-.2-4h-1.4v-.9c-.6-.4-1.6-.8-1.6-1.8-.2-.8.2-1.4.6-1.8l6 .2c.9 0 1.5-.6 1.7-1.3h.6c.6.7-.2 1.5-.8 1.9-1.2.8-2.7.4-4 .4l1.1 1.8c2 2.3 5.5 2.9 7.4 5.3.4.6 1.2 1.4 1 2.3 0 1.4.2 3 .6 4.4.2 1 .6 2 1.2 2.7 1.4 1 2.9 2 3.9 3.2.6.8 1 2 .8 3-.4 1.7-1.2 3.1-2 4.6.4.6 0 1.4-.6 1.6-1.3 0-1.9 1.4-2 2.4 1.3.6 2.8.4 4.2 0v-1.8l.8-.6c.2-3 1.2-5.7 2.4-8.4-1-2-2-4-1.8-6.5 1.2-1.8 2.7-3.8 2.3-6-.4-2.7-2.7-4.6-4.7-6a14.4 14.4 0 0 1-3.3-5.7v-3.2a6.5 6.5 0 0 1 2.9-.6l-1.7-2 4.5-1.5a8.2 8.2 0 0 1-2.6-3.3 9 9 0 0 0 4.7 0c-1.7-1.2-2.3-3.2-4-4.4l2.7-.9c-1-1.8-3-2.6-4.9-3 1-.6 1.9-1 2.5-1.8-2.5.2-4.9-.2-7.3-.4.2.6.4 1.2 0 1.8h-1.3c.2-.4.4-1 .2-1.6a3 3 0 0 0-1.8-2zm-2 5.3c.6 0 1 .4 1.4.8l-1.4.4-.6-.4a102.4 102.4 0 0 0 .6-.8zm-10 7.5h2l5 4a8.1 8.1 0 0 0-2.1 3.6l-2.5-4.7-.6-.2c-.6.2-1.2.6-1.4 1.2-.4.6-.2 1.4 0 2.3l-.6.6 1 1c-.6 1.2-1.4 2.4-2.8 2.8l-.6-2.4.6-1.2c0-.4-.4-.8-.6-1 .8-2 2.2-3.7 2.6-6zm26.3 3.7c1 .6 2.2 1.2 2.8 2.5a3.7 3.7 0 0 1 0 4c-.6 1-1.6 2-1.6 3.3.2 1.4 1.2 2.4 1.8 3.4.4 1 .6 2.3-.2 3-.4.7-1.4 1-2 .7l.4-.4c.2-.6 0-1.4-.6-1.8-1.3-1.3-3-1.7-4.1-3.3-.8-1.2-.6-2.6 0-3.9.2-1 1-2 .8-3 0-.6-.6-1.2-1-1.6 1-.6 2.6-.2 3.3 1 .3-1.2.5-2.7.3-3.9zm-15.3 19.4c.4-1.3 1.6-1.9 2.6-2.3l1.7 2.2c0 2.3.2 4.3 1.2 6.3-1.4 1.5-1.6 3.7-1.6 5.5l-5.3.2c-1 0-1.9.7-2.7.5v1.4c-1.4.4-2.8.6-4 0 0-.8.6-1.6 1.4-2.3.2 0 .8 0 1-.4.4-.2.4-.6.6-1h6.7c0-1.8-.8-3.2-1.4-4.9s-.8-3.4-.2-5.3z"/><text style="line-height:125%;-inkscape-font-specification:'sans-serif Bold'" x="1" y="13" font-weight="700" font-size="14" font-family="sans-serif" letter-spacing="0" word-spacing="0"><tspan x="1" y="13">Die Landesregierung</tspan> <tspan x="1" y="30"> Nordrhein-Westfalen</tspan></text></svg>