<svg xmlns="http://www.w3.org/2000/svg" viewBox="0 0 3173 1140"><path d="M1594 803c-10 0-14-4-16-11a20 20 0 0 1 1-8 64 64 0 0 1 36-44 21 21 0 0 1 7-2 13 13 0 0 1 15 15 36 36 0 0 1-3 10 68 68 0 0 1-30 35 59 59 0 0 1-11 5zm126-32a33 33 0 0 1-2 6 61 61 0 0 1-29 34c-7 4-13 6-19 0s-5-12-2-18a61 61 0 0 1 29-34 29 29 0 0 1 6-2c10-3 17 3 17 14zm-608 12a64 64 0 0 0 25-1 166 166 0 0 0 49-16 78 78 0 0 0 16-11c7-7 8-13 3-21a34 34 0 0 0-20-16 93 93 0 0 0-35-4 295 295 0 0 0-68 12 820 820 0 0 0-110 41 225 225 0 0 1-25 9 15 15 0 0 1-6-1c-10-1-14-7-10-16a53 53 0 0 1 15-24 230 230 0 0 1 27-22 327 327 0 0 1 131-54 239 239 0 0 1 103 5 85 85 0 0 1 9 3c28 11 41 30 42 60a91 91 0 0 1-28 68c-7 8-15 14-23 21s-7 6-3 14l16 27a129 129 0 0 1 3 111 215 215 0 0 1-151 131 211 211 0 0 1-126-5 123 123 0 0 1-81-84 141 141 0 0 1-4-21 23 23 0 0 1 1-7c1-4 3-5 7-3a59 59 0 0 1 5 4l31 20a120 120 0 0 0 81 22 380 380 0 0 0 140-41 155 155 0 0 0 42-32 75 75 0 0 0 23-52c0-28-15-46-44-49a85 85 0 0 0-32 3 67 67 0 0 0-38 26 136 136 0 0 0-19 41l-5 18c-4 10-5 11-14 10a44 44 0 0 1-23-10 22 22 0 0 1-7-27 60 60 0 0 1 5-8 75 75 0 0 1 5-9 78 78 0 0 0 17-50l2-32a77 77 0 0 1 4-17 25 25 0 0 1 17-17 28 28 0 0 0 17-15l10-20a69 69 0 0 1 8-12 13 13 0 0 1 13-4 10 10 0 0 1 7 10 112 112 0 0 1 0 19 280 280 0 0 1-3 25zm894 140a149 149 0 0 0-7 13l-13 42a100 100 0 0 1-16 32 28 28 0 0 1-28 11 15 15 0 0 1-13-12 82 82 0 0 1 2-34 651 651 0 0 1 30-103q30-85 68-166l9-18c5-9 10-12 18-11a22 22 0 0 1 20 17 22 22 0 0 1-1 9l-13 52-7 31a63 63 0 0 0 1 19c1 6 5 8 10 6a62 62 0 0 0 12-7l30-20a97 97 0 0 1 37-16c22-4 37 15 39 29a22 22 0 0 1-7 19 81 81 0 0 1-16 14l-35 18-39 19a137 137 0 0 0-22 16 19 19 0 0 0-6 21l10 34c6 19 13 37 15 56a77 77 0 0 1-1 21 19 19 0 0 1-17 17 30 30 0 0 1-28-10 83 83 0 0 1-13-20c-7-16-10-33-12-49l-5-31zm-358 44a132 132 0 0 0-11 8l-19 18-18 17a43 43 0 0 1-36 10 88 88 0 0 1-50-25 57 57 0 0 1-16-49 232 232 0 0 1 27-84 115 115 0 0 1 23-31 45 45 0 0 1 35-14c14 1 22 10 20 25a141 141 0 0 1-8 24l-12 26-3 10a9 9 0 0 0 11-2 155 155 0 0 0 14-13c9-9 16-19 25-27a129 129 0 0 1 21-17c15-10 30-8 45 2a25 25 0 0 1 11 25 143 143 0 0 1-5 19c-3 11-3 12 7 18l17 11c13 9 15 15 11 30a93 93 0 0 1-15 32c-16 22-42 19-57 10a29 29 0 0 1-12-14l-5-10zm588-26a17 17 0 0 0 13 20 50 50 0 0 0 32-1 88 88 0 0 0 29-17l13-11c6-5 10-4 13 3a36 36 0 0 1 3 29c-9 30-28 51-59 58a70 70 0 0 1-49-7 86 86 0 0 1-48-65 167 167 0 0 1 17-105 79 79 0 0 1 59-45 104 104 0 0 1 30-1 37 37 0 0 1 29 22 91 91 0 0 1 8 55 62 62 0 0 1-25 38 129 129 0 0 1-57 25l-6 2a12 12 0 0 0-3 1zm13-60c10 0 15-6 18-11 4-5 8-10 4-16a29 29 0 0 0-23 27zm-881-21l12-14 37-39a76 76 0 0 1 14-11 29 29 0 0 1 36 3 49 49 0 0 1 12 13 70 70 0 0 1 8 51 26 26 0 0 1-2 5c-3 6-5 7-11 5a35 35 0 0 0-31 7 119 119 0 0 0-26 25 417 417 0 0 0-38 58l-19 34-8 14c-6 10-8 11-19 8a88 88 0 0 1-19-7 35 35 0 0 1-21-38 358 358 0 0 1 9-44 442 442 0 0 1 28-76 115 115 0 0 1 10-18c6-8 14-8 18 1a95 95 0 0 1 6 13l4 10zm387 77a110 110 0 0 1 7-35 163 163 0 0 1 56-76 68 68 0 0 1 32-14 50 50 0 0 1 38 9 40 40 0 0 1 11 13 25 25 0 0 1-8 35 220 220 0 0 1-24 14c-11 7-23 12-33 19a60 60 0 0 0-20 18 41 41 0 0 0-6 29 18 18 0 0 0 10 14 33 33 0 0 0 32 1 115 115 0 0 0 16-12l16-15a110 110 0 0 1 9-7c10-7 18-4 20 8a27 27 0 0 1-1 11 96 96 0 0 1-66 72c-28 9-51-2-70-23-14-15-20-35-20-61zM595 247a249 249 0 0 1-153 227 245 245 0 0 1-123 21A248 248 0 0 1 94 309a238 238 0 0 1 73-241A247 247 0 0 1 305 3c112-17 220 41 267 140a245 245 0 0 1 24 104zm767 222l-39-8c-41-10-47-21-47-25-2-10 16-18 32-25a142 142 0 0 0 21-12c3-2 12-8 10-17-2-7-9-17-53-30l-10-3a4471 4471 0 0 0-169 30q-107 21-214 45-230 53-455 129a3128 3128 0 0 0-308 119C92 689 0 736 0 736l49 108 32-12a385 385 0 0 1 73-12 369 369 0 0 1 154 22 469 469 0 0 1 158 101 787 787 0 0 1 119 145l26 41a35 35 0 0 0 7 8 5 5 0 0 0 9-5 34 34 0 0 0-2-8 351 351 0 0 1-8-71 379 379 0 0 1 38-165 540 540 0 0 1 133-173 847 847 0 0 1 193-128c121-60 249-95 381-118z" fill="#e33"/><path fill="#888" d="M3155 546l-60-26c-101-38-205-66-310-92q-110-28-222-49a5055 5055 0 0 0-214-37l-75-10-73-8-90-9a4854 4854 0 0 0-242-12c-65-1-130 1-194 6a8145 8145 0 0 0-156 12 4409 4409 0 0 0-242 29l10 2c44 14 50 24 52 30 2 10-7 16-10 18a142 142 0 0 1-22 11c-15 8-33 15-31 25 1 4 7 15 48 25l38 8c47-8 93-13 140-17 38-3 75-6 113-7a2340 2340 0 0 1 265 6l120 12a1315 1315 0 0 1 150 28 941 941 0 0 1 203 74 550 550 0 0 1 174 134 411 411 0 0 1 99 270c0 16-2 32-4 48a113 113 0 0 0 0 14 5 5 0 0 0 10 3 62 62 0 0 0 7-11l34-61c36-63 75-123 124-176a500 500 0 0 1 116-97 283 283 0 0 1 195-40l15 2 50-95a187 187 0 0 0-19-10z"/><circle fill="#888" cx="2857" cy="194" r="175"/></svg>